<svg width="100" height="74" viewBox="0 0 100 74" fill="none" xmlns="http://www.w3.org/2000/svg">
<path d="M82.23 0L65.79 16.36L49.34 0L32.9 16.36L16.46 0L0 16.39L1.88995 18.13L16.46 3.62L32.9 19.98L49.34 3.62L65.79 19.98L82.23 3.62L96.74 18.05L98.55 16.23L82.23 0Z" fill="#FF9D00"/>
<path d="M83.23 54L66.79 70.36L50.34 54L33.9 70.36L17.46 54L1 70.39L2.88995 72.13L17.46 57.62L33.9 73.98L50.34 57.62L66.79 73.98L83.23 57.62L97.74 72.05L99.55 70.23L83.23 54Z" fill="#FF9D00"/>
<path d="M83.23 30L66.79 46.36L50.34 30L33.9 46.36L17.46 30L1 46.39L2.88995 48.13L17.46 33.62L33.9 49.98L50.34 33.62L66.79 49.98L83.23 33.62L97.74 48.05L99.55 46.23L83.23 30Z" fill="#FF9D00"/>
</svg>
