<svg width="119" height="119" viewBox="0 0 119 119" fill="none" xmlns="http://www.w3.org/2000/svg">
<path d="M61.8483 5.6708C60.55 6.96925 58.4501 6.96925 57.1517 5.6708C55.8534 4.37236 55.8534 2.27229 57.1517 0.973837C58.4501 -0.324612 60.55 -0.324612 61.8483 0.973837C63.1467 2.27229 63.1467 4.37236 61.8483 5.6708ZM75.8928 15.0196C74.5944 13.7212 72.4946 13.7212 71.1962 15.0196C69.8979 16.3181 69.8979 18.4182 71.1962 19.7166C72.4946 21.0151 74.5944 21.0151 75.8928 19.7166C77.1911 18.4182 77.1911 16.3181 75.8928 15.0196ZM89.9373 29.0655C88.6389 27.767 86.5391 27.767 85.2407 29.0655C83.9424 30.3639 83.9424 32.464 85.2407 33.7625C86.5391 35.0609 88.6389 35.0609 89.9373 33.7625C91.2356 32.464 91.2356 30.3639 89.9373 29.0655ZM103.982 43.1113C102.683 41.8129 100.584 41.8129 99.2852 43.1113C97.9869 44.4097 97.9869 46.5099 99.2852 47.8083C100.584 49.1068 102.683 49.1068 103.982 47.8083C105.28 46.5099 105.28 44.4097 103.982 43.1113ZM118.026 57.1571C116.728 55.8587 114.628 55.8587 113.33 57.1571C112.031 58.4556 112.031 60.5557 113.33 61.8541C114.628 63.1526 116.728 63.1526 118.026 61.8541C119.325 60.5557 119.325 58.4556 118.026 57.1571ZM47.8038 15.0196C46.5055 13.7212 44.4056 13.7212 43.1072 15.0196C41.8089 16.3181 41.8089 18.4182 43.1072 19.7166C44.4056 21.0151 46.5055 21.0151 47.8038 19.7166C49.1022 18.4182 49.1022 16.3181 47.8038 15.0196ZM61.8483 29.0655C60.55 27.767 58.4501 27.767 57.1517 29.0655C55.8534 30.3639 55.8534 32.464 57.1517 33.7625C58.4501 35.0609 60.55 35.0609 61.8483 33.7625C63.1467 32.464 63.1467 30.3639 61.8483 29.0655ZM75.8928 43.1113C74.5944 41.8129 72.4946 41.8129 71.1962 43.1113C69.8979 44.4097 69.8979 46.5099 71.1962 47.8083C72.4946 49.1068 74.5944 49.1068 75.8928 47.8083C77.1911 46.5099 77.1911 44.4097 75.8928 43.1113ZM89.9373 57.1571C88.6389 55.8587 86.5391 55.8587 85.2407 57.1571C83.9424 58.4556 83.9424 60.5557 85.2407 61.8541C86.5391 63.1526 88.6389 63.1526 89.9373 61.8541C91.2356 60.5557 91.2356 58.4556 89.9373 57.1571ZM103.982 71.203C102.683 69.9045 100.584 69.9045 99.2852 71.203C97.9869 72.5014 97.9869 74.6015 99.2852 75.9C100.584 77.1984 102.683 77.1984 103.982 75.9C105.28 74.6015 105.28 72.5014 103.982 71.203ZM33.7593 29.0655C32.461 27.767 30.3611 27.767 29.0627 29.0655C27.7644 30.3639 27.7644 32.464 29.0627 33.7625C30.3611 35.0609 32.461 35.0609 33.7593 33.7625C35.0577 32.464 35.0577 30.3639 33.7593 29.0655ZM47.8038 43.1113C46.5055 41.8129 44.4056 41.8129 43.1072 43.1113C41.8089 44.4097 41.8089 46.5099 43.1072 47.8083C44.4056 49.1068 46.5055 49.1068 47.8038 47.8083C49.1022 46.5099 49.1022 44.4097 47.8038 43.1113ZM61.8483 57.1571C60.55 55.8587 58.4501 55.8587 57.1517 57.1571C55.8534 58.4556 55.8534 60.5557 57.1517 61.8541C58.4501 63.1526 60.55 63.1526 61.8483 61.8541C63.1467 60.5557 63.1467 58.4556 61.8483 57.1571ZM75.8928 71.203C74.5944 69.9045 72.4946 69.9045 71.1962 71.203C69.8979 72.5014 69.8979 74.6015 71.1962 75.9C72.4946 77.1984 74.5944 77.1984 75.8928 75.9C77.1911 74.6015 77.1911 72.5014 75.8928 71.203ZM89.9373 85.2488C88.6389 83.9504 86.5391 83.9504 85.2407 85.2488C83.9424 86.5472 83.9424 88.6474 85.2407 89.9458C86.5391 91.2443 88.6389 91.2443 89.9373 89.9458C91.2356 88.6474 91.2356 86.536 89.9373 85.2488ZM19.7148 43.1113C18.4165 41.8129 16.3166 41.8129 15.0182 43.1113C13.7199 44.4097 13.7199 46.5099 15.0182 47.8083C16.3166 49.1068 18.4165 49.1068 19.7148 47.8083C21.0132 46.5099 21.0132 44.4097 19.7148 43.1113ZM33.7593 57.1571C32.461 55.8587 30.3611 55.8587 29.0627 57.1571C27.7644 58.4556 27.7644 60.5557 29.0627 61.8541C30.3611 63.1526 32.461 63.1526 33.7593 61.8541C35.0577 60.5557 35.0577 58.4556 33.7593 57.1571ZM47.8038 71.203C46.5055 69.9045 44.4056 69.9045 43.1072 71.203C41.8089 72.5014 41.8089 74.6015 43.1072 75.9C44.4056 77.1984 46.5055 77.1984 47.8038 75.9C49.1022 74.6015 49.1022 72.5014 47.8038 71.203ZM61.8483 85.2488C60.55 83.9504 58.4501 83.9504 57.1517 85.2488C55.8534 86.5472 55.8534 88.6474 57.1517 89.9458C58.4501 91.2443 60.55 91.2443 61.8483 89.9458C63.1467 88.6474 63.1467 86.536 61.8483 85.2488ZM75.8928 99.2946C74.5944 97.9962 72.4946 97.9962 71.1962 99.2946C69.8979 100.593 69.8979 102.693 71.1962 103.992C72.4946 105.29 74.5944 105.29 75.8928 103.992C77.1911 102.693 77.1911 100.582 75.8928 99.2946ZM5.67034 57.1571C4.37201 55.8587 2.27207 55.8587 0.973744 57.1571C-0.324581 58.4556 -0.324581 60.5557 0.973744 61.8541C2.27207 63.1526 4.37201 63.1526 5.67034 61.8541C6.96866 60.5557 6.96866 58.4556 5.67034 57.1571ZM19.7148 71.203C18.4165 69.9045 16.3166 69.9045 15.0182 71.203C13.7199 72.5014 13.7199 74.6015 15.0182 75.9C16.3166 77.1984 18.4165 77.1984 19.7148 75.9C21.0132 74.6015 21.0132 72.5014 19.7148 71.203ZM33.7593 85.2488C32.461 83.9504 30.3611 83.9504 29.0627 85.2488C27.7644 86.5472 27.7644 88.6474 29.0627 89.9458C30.3611 91.2443 32.461 91.2443 33.7593 89.9458C35.0577 88.6474 35.0577 86.536 33.7593 85.2488ZM47.8038 99.2946C46.5055 97.9962 44.4056 97.9962 43.1072 99.2946C41.8089 100.593 41.8089 102.693 43.1072 103.992C44.4056 105.29 46.5055 105.29 47.8038 103.992C49.1022 102.693 49.1022 100.582 47.8038 99.2946ZM61.8483 113.329C60.55 112.031 58.4501 112.031 57.1517 113.329C55.8534 114.628 55.8534 116.728 57.1517 118.026C58.4501 119.325 60.55 119.325 61.8483 118.026C63.1467 116.739 63.1467 114.628 61.8483 113.329Z" fill="#8E97A4"/>
</svg>
