<svg width="134" height="78" viewBox="0 0 134 78" fill="none" xmlns="http://www.w3.org/2000/svg">
<path d="M127.333 1.39883L127.189 14.398M120.761 7.82655L133.76 7.97031L120.761 7.82655Z" stroke="#8BD2BD" stroke-miterlimit="10"/>
<path d="M126.979 33.3969L126.835 46.3961M120.407 39.8246L133.407 39.9684L120.407 39.8246Z" stroke="#8BD2BD" stroke-miterlimit="10"/>
<path d="M126.636 64.395L126.492 77.3942M120.065 70.8227L133.064 70.9665L120.065 70.8227Z" stroke="#8BD2BD" stroke-miterlimit="10"/>
<path d="M127.333 1.39883L127.189 14.398M120.761 7.82655L133.76 7.97031L120.761 7.82655Z" stroke="#CCCCCC" stroke-width="2" stroke-miterlimit="10"/>
<path d="M126.979 33.3969L126.835 46.3961M120.407 39.8246L133.407 39.9684L120.407 39.8246Z" stroke="#CCCCCC" stroke-width="2" stroke-miterlimit="10"/>
<path d="M126.636 64.395L126.492 77.3942M120.065 70.8227L133.064 70.9665L120.065 70.8227Z" stroke="#CCCCCC" stroke-width="2" stroke-miterlimit="10"/>
<path d="M97.3346 1.06709L97.1908 14.0663M90.7631 7.49481L103.762 7.63857L90.7631 7.49481Z" stroke="#8BD2BD" stroke-miterlimit="10"/>
<path d="M96.9807 33.0651L96.8369 46.0643M90.4092 39.4929L103.408 39.6366L90.4092 39.4929Z" stroke="#8BD2BD" stroke-miterlimit="10"/>
<path d="M96.6379 64.0632L96.4942 77.0624M90.0664 70.491L103.066 70.6347L90.0664 70.491Z" stroke="#8BD2BD" stroke-miterlimit="10"/>
<path d="M97.3346 1.06709L97.1908 14.0663M90.7631 7.49481L103.762 7.63857L90.7631 7.49481Z" stroke="#CCCCCC" stroke-width="2" stroke-miterlimit="10"/>
<path d="M96.9807 33.0651L96.8369 46.0643M90.4092 39.4929L103.408 39.6366L90.4092 39.4929Z" stroke="#CCCCCC" stroke-width="2" stroke-miterlimit="10"/>
<path d="M96.6379 64.0632L96.4942 77.0624M90.0664 70.491L103.066 70.6347L90.0664 70.491Z" stroke="#CCCCCC" stroke-width="2" stroke-miterlimit="10"/>
<path d="M66.9825 32.7334L66.8388 45.7326M60.4111 39.1611L73.4103 39.3049L60.4111 39.1611Z" stroke="#8BD2BD" stroke-miterlimit="10"/>
<path d="M66.6398 63.7315L66.496 76.7307M60.0683 70.1592L73.0675 70.303L60.0683 70.1592Z" stroke="#8BD2BD" stroke-miterlimit="10"/>
<path d="M66.9825 32.7334L66.8388 45.7326M60.4111 39.1611L73.4103 39.3049L60.4111 39.1611Z" stroke="#CCCCCC" stroke-width="2" stroke-miterlimit="10"/>
<path d="M66.6398 63.7315L66.496 76.7307M60.0683 70.1592L73.0675 70.303L60.0683 70.1592Z" stroke="#CCCCCC" stroke-width="2" stroke-miterlimit="10"/>
<path d="M36.9844 32.4016L36.8406 45.4008M30.4129 38.8294L43.4121 38.9731L30.4129 38.8294Z" stroke="#8BD2BD" stroke-miterlimit="10"/>
<path d="M36.6416 63.3997L36.4978 76.3989M30.0701 69.8275L43.0693 69.9712L30.0701 69.8275Z" stroke="#8BD2BD" stroke-miterlimit="10"/>
<path d="M36.9844 32.4016L36.8406 45.4008M30.4129 38.8294L43.4121 38.9731L30.4129 38.8294Z" stroke="#CCCCCC" stroke-width="2" stroke-miterlimit="10"/>
<path d="M36.6416 63.3997L36.4978 76.3989M30.0701 69.8275L43.0693 69.9712L30.0701 69.8275Z" stroke="#CCCCCC" stroke-width="2" stroke-miterlimit="10"/>
<path d="M6.98619 32.0699L6.84244 45.0691M0.414714 38.4976L13.4139 38.6414L0.414714 38.4976Z" stroke="#8BD2BD" stroke-miterlimit="10"/>
<path d="M6.64342 63.068L6.49967 76.0672M0.0719408 69.4957L13.0711 69.6395L0.0719408 69.4957Z" stroke="#8BD2BD" stroke-miterlimit="10"/>
<path d="M6.98619 32.0699L6.84244 45.0691M0.414714 38.4976L13.4139 38.6414L0.414714 38.4976Z" stroke="#CCCCCC" stroke-width="2" stroke-miterlimit="10"/>
<path d="M6.64342 63.068L6.49967 76.0672M0.0719408 69.4957L13.0711 69.6395L0.0719408 69.4957Z" stroke="#CCCCCC" stroke-width="2" stroke-miterlimit="10"/>
</svg>
